<svg width="49" height="49" viewBox="0 0 49 49" fill="none" xmlns="http://www.w3.org/2000/svg">
<path d="M17.5154 38.2554C16.9221 38.2554 16.3421 38.4313 15.8487 38.761C15.3554 39.0906 14.9708 39.5591 14.7438 40.1073C14.5167 40.6555 14.4573 41.2587 14.5731 41.8406C14.6888 42.4226 14.9745 42.9571 15.3941 43.3767C15.8137 43.7962 16.3482 44.082 16.9301 44.1977C17.5121 44.3135 18.1153 44.2541 18.6635 44.027C19.2116 43.7999 19.6802 43.4154 20.0098 42.9221C20.3395 42.4287 20.5154 41.8487 20.5154 41.2554C20.5154 40.4597 20.1993 39.6967 19.6367 39.134C19.0741 38.5714 18.3111 38.2554 17.5154 38.2554ZM38.5154 32.2554H14.5154C13.985 32.2554 13.4763 32.0446 13.1012 31.6696C12.7261 31.2945 12.5154 30.7858 12.5154 30.2554C12.5154 29.7249 12.7261 29.2162 13.1012 28.8411C13.4763 28.4661 13.985 28.2554 14.5154 28.2554H31.4978C32.8007 28.2512 34.0671 27.8249 35.1073 27.0403C36.1474 26.2558 36.9053 25.1553 37.2674 23.9038L40.4383 12.8052C40.5233 12.5075 40.5382 12.1942 40.4816 11.8898C40.4249 11.5855 40.2985 11.2984 40.1121 11.0512C39.9257 10.8041 39.6845 10.6035 39.4074 10.4654C39.1303 10.3273 38.825 10.2554 38.5154 10.2554H13.9936C13.5795 9.09009 12.8163 8.08079 11.8079 7.365C10.7994 6.64921 9.59479 6.26173 8.35816 6.25537H6.51538C5.98495 6.25537 5.47624 6.46609 5.10117 6.84116C4.72609 7.21623 4.51538 7.72494 4.51538 8.25537C4.51538 8.78581 4.72609 9.29451 5.10117 9.66959C5.47624 10.0446 5.98495 10.2554 6.51538 10.2554H8.35816C8.79232 10.2569 9.21432 10.399 9.56095 10.6604C9.90759 10.9219 10.1603 11.2885 10.281 11.7056L10.5921 12.795L10.5926 12.8052L13.8738 24.2895C12.3469 24.4538 10.9412 25.1973 9.94591 26.3668C8.9507 27.5364 8.44181 29.043 8.52403 30.5765C8.60626 32.11 9.27333 33.5536 10.3879 34.61C11.5025 35.6665 12.9797 36.2553 14.5154 36.2554H38.5154C39.0459 36.2554 39.5546 36.0447 39.9296 35.6696C40.3047 35.2945 40.5154 34.7858 40.5154 34.2554C40.5154 33.7249 40.3047 33.2162 39.9296 32.8411C39.5546 32.4661 39.0459 32.2554 38.5154 32.2554ZM35.8641 14.2554L33.4217 22.8042C33.301 23.2216 33.0483 23.5886 32.7015 23.8502C32.3546 24.1118 31.9323 24.254 31.4978 24.2554H18.0242L17.5143 22.4709L15.1683 14.2554H35.8641ZM33.5154 38.2554C32.9221 38.2554 32.3421 38.4313 31.8487 38.761C31.3554 39.0906 30.9708 39.5591 30.7438 40.1073C30.5167 40.6555 30.4573 41.2587 30.5731 41.8406C30.6888 42.4226 30.9745 42.9571 31.3941 43.3767C31.8137 43.7962 32.3482 44.082 32.9301 44.1977C33.5121 44.3135 34.1153 44.2541 34.6635 44.027C35.2116 43.7999 35.6802 43.4154 36.0098 42.9221C36.3395 42.4287 36.5154 41.8487 36.5154 41.2554C36.5154 40.4597 36.1993 39.6967 35.6367 39.134C35.0741 38.5714 34.3111 38.2554 33.5154 38.2554Z" fill="black"/>
<rect x="27" y="4" width="20" height="20" rx="10" fill="white"/>
<path d="M35.907 20.0146V7.44354H39.0852V20.0146H35.907ZM31.2106 15.3182V12.1399H43.7816V15.3182H31.2106Z" fill="black"/>
</svg>
