<svg width="49" height="49" viewBox="0 0 49 49" fill="none" xmlns="http://www.w3.org/2000/svg">
<path d="M17.5153 38.2555C16.922 38.2555 16.342 38.4314 15.8486 38.7611C15.3553 39.0907 14.9707 39.5592 14.7437 40.1074C14.5166 40.6556 14.4572 41.2588 14.573 41.8407C14.6887 42.4227 14.9744 42.9572 15.394 43.3768C15.8136 43.7963 16.3481 44.0821 16.93 44.1978C17.512 44.3136 18.1152 44.2542 18.6634 44.0271C19.2115 43.8 19.6801 43.4155 20.0097 42.9222C20.3394 42.4288 20.5153 41.8488 20.5153 41.2555C20.5153 40.4598 20.1992 39.6968 19.6366 39.1341C19.074 38.5715 18.311 38.2555 17.5153 38.2555ZM38.5153 32.2555H14.5153C13.9849 32.2555 13.4762 32.0447 13.1011 31.6697C12.726 31.2946 12.5153 30.7859 12.5153 30.2555C12.5153 29.725 12.726 29.2163 13.1011 28.8412C13.4762 28.4662 13.9849 28.2555 14.5153 28.2555H31.4977C32.8006 28.2513 34.067 27.825 35.1072 27.0404C36.1473 26.2559 36.9052 25.1554 37.2673 23.9039L40.4382 12.8053C40.5232 12.5076 40.5381 12.1943 40.4815 11.8899C40.4248 11.5856 40.2984 11.2985 40.112 11.0513C39.9256 10.8042 39.6844 10.6036 39.4073 10.4655C39.1302 10.3274 38.8249 10.2555 38.5153 10.2555H13.9935C13.5794 9.09018 12.8162 8.08088 11.8078 7.36509C10.7993 6.6493 9.59473 6.26182 8.3581 6.25546H6.51532C5.98489 6.25546 5.47618 6.46618 5.10111 6.84125C4.72603 7.21632 4.51532 7.72503 4.51532 8.25546C4.51532 8.7859 4.72603 9.2946 5.10111 9.66968C5.47618 10.0447 5.98489 10.2555 6.51532 10.2555H8.3581C8.79226 10.257 9.21426 10.3991 9.56089 10.6605C9.90753 10.922 10.1602 11.2886 10.2809 11.7057L10.592 12.7951L10.5925 12.8053L13.8737 24.2896C12.3468 24.4539 10.9411 25.1974 9.94585 26.3669C8.95064 27.5365 8.44175 29.0431 8.52397 30.5766C8.6062 32.1101 9.27327 33.5537 10.3878 34.6101C11.5024 35.6666 12.9796 36.2554 14.5153 36.2555H38.5153C39.0458 36.2555 39.5545 36.0448 39.9295 35.6697C40.3046 35.2946 40.5153 34.7859 40.5153 34.2555C40.5153 33.725 40.3046 33.2163 39.9295 32.8412C39.5545 32.4662 39.0458 32.2555 38.5153 32.2555ZM35.864 14.2555L33.4216 22.8043C33.3009 23.2217 33.0482 23.5887 32.7014 23.8503C32.3545 24.1119 31.9322 24.2541 31.4977 24.2555H18.0241L17.5142 22.471L15.1682 14.2555H35.864ZM33.5153 38.2555C32.922 38.2555 32.342 38.4314 31.8486 38.7611C31.3553 39.0907 30.9707 39.5592 30.7437 40.1074C30.5166 40.6556 30.4572 41.2588 30.573 41.8407C30.6887 42.4227 30.9744 42.9572 31.394 43.3768C31.8136 43.7963 32.3481 44.0821 32.93 44.1978C33.512 44.3136 34.1152 44.2542 34.6634 44.0271C35.2115 43.8 35.6801 43.4155 36.0097 42.9222C36.3394 42.4288 36.5153 41.8488 36.5153 41.2555C36.5153 40.4598 36.1992 39.6968 35.6366 39.1341C35.074 38.5715 34.311 38.2555 33.5153 38.2555Z" fill="black"/>
</svg>
